<svg xmlns="http://www.w3.org/2000/svg" height="512" width="512"><g style="fill:#fff"><path d="m122.586 219.294-121 240a14.967 14.967 0 0 0 .659 14.59 15.005 15.005 0 0 0 12.759 7.119h265.272L149.422 219.294c-5.528-11.058-21.308-11.058-26.836 0zM30.004 151.003h121c16.569 0 30-13.433 30-30 0-16.569-13.431-30-30-30 0-33.138-26.863-60-60-60s-61 26.862-61 60c-16.569 0-30 13.431-30 30 0 16.567 13.431 30 30 30zM482.004 181.003c0-33.138-27.863-60-61-60s-60 26.862-60 60c-16.569 0-30 13.431-30 30 0 16.567 13.431 30 30 30h121c16.569 0 30-13.433 30-30 0-16.569-13.431-30-30-30z" style="fill:#fff" transform="matrix(.60937 0 0 .60937 100 100)"/><path d="M422.528 271.003h-61.523c-33.091 0-60-26.909-60-60 0-23.438 13.506-43.784 33.149-53.657 3.664-13.431 10.499-25.508 19.455-35.669l-23.981-51.958a15 15 0 0 0-13.623-8.716 15.013 15.013 0 0 0-13.623 8.716L209.16 271.691l104.661 209.312h183.183c5.112 0 9.873-2.607 12.642-6.914a15.02 15.02 0 0 0 .981-14.37z" style="fill:#fff" transform="matrix(.60937 0 0 .60937 100 100)"/></g></svg>