<?xml version="1.0" encoding="UTF-8" standalone="no"?>
<svg
   xmlns:dc="http://purl.org/dc/elements/1.1/"
   xmlns:cc="http://creativecommons.org/ns#"
   xmlns:rdf="http://www.w3.org/1999/02/22-rdf-syntax-ns#"
   xmlns:svg="http://www.w3.org/2000/svg"
   xmlns="http://www.w3.org/2000/svg"
   xmlns:sodipodi="http://sodipodi.sourceforge.net/DTD/sodipodi-0.dtd"
   xmlns:inkscape="http://www.inkscape.org/namespaces/inkscape"
   id="Capa_1"
   enable-background="new 0 0 512.006 512.006"
   height="512"
   viewBox="0 0 511.99999 512.00001"
   width="512"
   version="1.1"
   sodipodi:docname="placeholder-img.svg"
   inkscape:version="1.0.2 (e86c870879, 2021-01-15)">
  <metadata
     id="metadata1777">
    <rdf:RDF>
      <cc:Work
         rdf:about="">
        <dc:format>image/svg+xml</dc:format>
        <dc:type
           rdf:resource="http://purl.org/dc/dcmitype/StillImage" />
        <dc:title></dc:title>
      </cc:Work>
    </rdf:RDF>
  </metadata>
  <defs
     id="defs1775" />
  <sodipodi:namedview
     pagecolor="#ffffff"
     bordercolor="#666666"
     borderopacity="1"
     objecttolerance="10"
     gridtolerance="10"
     guidetolerance="10"
     inkscape:pageopacity="0"
     inkscape:pageshadow="2"
     inkscape:window-width="1920"
     inkscape:window-height="1016"
     id="namedview1773"
     showgrid="false"
     fit-margin-top="0"
     fit-margin-left="0"
     fit-margin-right="0"
     fit-margin-bottom="0"
     inkscape:zoom="1"
     inkscape:cx="276.25883"
     inkscape:cy="266.07212"
     inkscape:window-x="0"
     inkscape:window-y="0"
     inkscape:window-maximized="1"
     inkscape:current-layer="Capa_1"
     inkscape:document-rotation="0" />
  <g
     id="g1784"
     transform="matrix(0.60936667,0,0,0.60936667,100.00035,100.0003)"
     style="fill:#ffffff">
    <g
       id="g1770"
       style="fill:#ffffff">
      <path
         d="m 122.586,219.294 -121,240 c -2.329,4.644 -2.08,10.166 0.659,14.59 2.739,4.424 7.559,7.119 12.759,7.119 H 280.276 L 149.422,219.294 c -5.528,-11.058 -21.308,-11.058 -26.836,0 z"
         id="path1762"
         style="fill:#ffffff" />
      <path
         d="m 30.004,151.003 h 121 c 16.569,0 30,-13.433 30,-30 0,-16.569 -13.431,-30 -30,-30 0,-33.138 -26.863,-60 -60,-60 -33.137,0 -61,26.862 -61,60 -16.569,0 -30,13.431 -30,30 0,16.567 13.431,30 30,30 z"
         id="path1764"
         style="fill:#ffffff" />
      <path
         d="m 482.004,181.003 c 0,-33.138 -27.863,-60 -61,-60 -33.137,0 -60,26.862 -60,60 -16.569,0 -30,13.431 -30,30 0,16.567 13.431,30 30,30 h 121 c 16.569,0 30,-13.433 30,-30 0,-16.569 -13.431,-30 -30,-30 z"
         id="path1766"
         style="fill:#ffffff" />
      <path
         d="m 422.528,271.003 h -61.523 c -33.091,0 -60,-26.909 -60,-60 0,-23.438 13.506,-43.784 33.149,-53.657 3.664,-13.431 10.499,-25.508 19.455,-35.669 L 329.628,69.719 c -2.461,-5.317 -7.764,-8.716 -13.623,-8.716 -5.845,0 -11.162,3.398 -13.623,8.716 L 209.16,271.691 313.821,481.003 h 183.183 c 5.112,0 9.873,-2.607 12.642,-6.914 2.754,-4.307 3.12,-9.727 0.981,-14.37 z"
         id="path1768"
         style="fill:#ffffff" />
    </g>
  </g>
</svg>
